<?xml version="1.0" encoding="UTF-8"?>
<!DOCTYPE svg PUBLIC "-//W3C//DTD SVG 1.1//EN" "http://www.w3.org/Graphics/SVG/1.1/DTD/svg11.dtd">
<!-- Creator: CorelDRAW X8 -->
<svg xmlns="http://www.w3.org/2000/svg" xml:space="preserve" width="1000mm" height="280mm" version="1.1" style="shape-rendering:geometricPrecision; text-rendering:geometricPrecision; image-rendering:optimizeQuality; fill-rule:evenodd; clip-rule:evenodd"
viewBox="0 0 33108 9270"
 xmlns:xlink="http://www.w3.org/1999/xlink">
 <defs>
  <style type="text/css">
   <![CDATA[
    .fil0 {fill:#D9DADA}
   ]]>
  </style>
 </defs>
 <g id="Слой_x0020_1">
  <metadata id="CorelCorpID_0Corel-Layer"/>
  <g id="_1170825673248">
   <rect class="fil0" width="33108" height="28.177"/>
   <rect class="fil0" y="113" width="33108" height="28.177"/>
   <rect class="fil0" y="225" width="33108" height="28.177"/>
   <rect class="fil0" y="338" width="33108" height="28.177"/>
   <rect class="fil0" y="451" width="33108" height="28.177"/>
   <rect class="fil0" y="564" width="33108" height="28.177"/>
   <rect class="fil0" y="676" width="33108" height="28.177"/>
   <rect class="fil0" y="789" width="33108" height="28.177"/>
   <rect class="fil0" y="902" width="33108" height="28.177"/>
   <rect class="fil0" y="1014" width="33108" height="28.177"/>
   <rect class="fil0" y="1127" width="33108" height="28.177"/>
   <rect class="fil0" y="1240" width="33108" height="28.177"/>
   <rect class="fil0" y="1352" width="33108" height="28.177"/>
   <rect class="fil0" y="1465" width="33108" height="28.177"/>
   <rect class="fil0" y="1578" width="33108" height="28.177"/>
   <rect class="fil0" y="1691" width="33108" height="28.177"/>
   <rect class="fil0" y="1803" width="33108" height="28.177"/>
   <rect class="fil0" y="1916" width="33108" height="28.177"/>
   <rect class="fil0" y="2029" width="33108" height="28.177"/>
   <rect class="fil0" y="2141" width="33108" height="28.177"/>
   <rect class="fil0" y="2254" width="33108" height="28.177"/>
   <rect class="fil0" y="2367" width="33108" height="28.177"/>
   <rect class="fil0" y="2480" width="33108" height="28.177"/>
   <rect class="fil0" y="2592" width="33108" height="28.177"/>
   <rect class="fil0" y="2705" width="33108" height="28.177"/>
   <rect class="fil0" y="2818" width="33108" height="28.177"/>
   <rect class="fil0" y="2930" width="33108" height="28.177"/>
   <rect class="fil0" y="3043" width="33108" height="28.177"/>
   <rect class="fil0" y="3156" width="33108" height="28.177"/>
   <rect class="fil0" y="3269" width="33108" height="28.177"/>
   <rect class="fil0" y="3381" width="33108" height="28.177"/>
   <rect class="fil0" y="3494" width="33108" height="28.177"/>
   <rect class="fil0" y="3607" width="33108" height="28.177"/>
   <rect class="fil0" y="3719" width="33108" height="28.177"/>
   <rect class="fil0" y="3832" width="33108" height="28.177"/>
   <rect class="fil0" y="3945" width="33108" height="28.177"/>
   <rect class="fil0" y="4057" width="33108" height="28.177"/>
   <rect class="fil0" y="4170" width="33108" height="28.177"/>
   <rect class="fil0" y="4283" width="33108" height="28.177"/>
   <rect class="fil0" y="4396" width="33108" height="28.177"/>
   <rect class="fil0" y="4508" width="33108" height="28.177"/>
   <rect class="fil0" y="4621" width="33108" height="28.177"/>
   <rect class="fil0" y="4734" width="33108" height="28.177"/>
   <rect class="fil0" y="4846" width="33108" height="28.177"/>
   <rect class="fil0" y="4959" width="33108" height="28.177"/>
   <rect class="fil0" y="5072" width="33108" height="28.177"/>
   <rect class="fil0" y="5185" width="33108" height="28.177"/>
   <rect class="fil0" y="5297" width="33108" height="28.177"/>
   <rect class="fil0" y="5410" width="33108" height="28.177"/>
   <rect class="fil0" y="5523" width="33108" height="28.177"/>
   <rect class="fil0" y="5635" width="33108" height="28.177"/>
   <rect class="fil0" y="5748" width="33108" height="28.177"/>
   <rect class="fil0" y="5861" width="33108" height="28.177"/>
   <rect class="fil0" y="5974" width="33108" height="28.177"/>
   <rect class="fil0" y="6086" width="33108" height="28.177"/>
   <rect class="fil0" y="6199" width="33108" height="28.177"/>
   <rect class="fil0" y="6312" width="33108" height="28.177"/>
   <rect class="fil0" y="6424" width="33108" height="28.177"/>
   <rect class="fil0" y="6537" width="33108" height="28.177"/>
   <rect class="fil0" y="6650" width="33108" height="28.177"/>
   <rect class="fil0" y="6762" width="33108" height="28.177"/>
   <rect class="fil0" y="6875" width="33108" height="28.177"/>
   <rect class="fil0" y="6988" width="33108" height="28.177"/>
   <rect class="fil0" y="7101" width="33108" height="28.177"/>
   <rect class="fil0" y="7213" width="33108" height="28.177"/>
   <rect class="fil0" y="7326" width="33108" height="28.177"/>
   <rect class="fil0" y="7439" width="33108" height="28.177"/>
   <rect class="fil0" y="7551" width="33108" height="28.177"/>
   <rect class="fil0" y="7664" width="33108" height="28.177"/>
   <rect class="fil0" y="7777" width="33108" height="28.177"/>
   <rect class="fil0" y="7890" width="33108" height="28.177"/>
   <rect class="fil0" y="8002" width="33108" height="28.177"/>
   <rect class="fil0" y="8115" width="33108" height="28.177"/>
   <rect class="fil0" y="8228" width="33108" height="28.177"/>
   <rect class="fil0" y="8340" width="33108" height="28.177"/>
   <rect class="fil0" y="8453" width="33108" height="28.177"/>
   <rect class="fil0" y="8566" width="33108" height="28.177"/>
   <rect class="fil0" y="8679" width="33108" height="28.177"/>
   <rect class="fil0" y="8791" width="33108" height="28.177"/>
   <rect class="fil0" y="8904" width="33108" height="28.177"/>
   <rect class="fil0" y="9017" width="33108" height="28.177"/>
   <rect class="fil0" y="9129" width="33108" height="28.177"/>
   <rect class="fil0" y="9242" width="33108" height="28.177"/>
  </g>
 </g>
</svg>
